<svg id="Layer_1" data-name="Layer 1" xmlns="http://www.w3.org/2000/svg" viewBox="0 0 85 85"><defs><style>.cls-1{fill:#fff;}.cls-1,.cls-2,.cls-3{stroke:#4d5861;stroke-linecap:round;stroke-linejoin:round;stroke-width:0.75px;}.cls-2{fill:none;}.cls-3{fill:#c2e5e1;}</style></defs><title>react_dialog-icon </title><path class="cls-1" d="M65.22,30.24V47.08A5.9,5.9,0,0,1,59.33,53H46.1l-7.2,7.67L40.18,53H25.68a5.9,5.9,0,0,1-5.9-5.9V30.24a5.9,5.9,0,0,1,5.9-5.89H59.33A5.89,5.89,0,0,1,65.22,30.24Z"/><ellipse class="cls-2" cx="42.5" cy="38.66" rx="8.3" ry="3.17"/><ellipse class="cls-2" cx="42.5" cy="38.66" rx="8.3" ry="3.17" transform="translate(-12.23 56.14) rotate(-60)"/><ellipse class="cls-2" cx="42.5" cy="38.66" rx="3.17" ry="8.3" transform="translate(-13.64 26.43) rotate(-30)"/><path class="cls-3" d="M42.5,37.1A1.55,1.55,0,1,1,41,38.65,1.54,1.54,0,0,1,42.5,37.1"/></svg>